<svg width="59" height="59" viewBox="0 0 59 59" fill="none" xmlns="http://www.w3.org/2000/svg">
<circle cx="29.5" cy="29.5" r="29" stroke="#D9D9D9"/>
<path d="M18.4277 42.0654H42.0117C43.3301 42.0654 44.3506 41.6846 45.0732 40.9229C45.8057 40.1709 46.1719 39.0381 46.1719 37.5244V21.3525C46.1719 19.8486 45.7861 18.7207 45.0146 17.9688C44.2529 17.207 43.1055 16.8262 41.5723 16.8262H17.9883C16.6699 16.8262 15.6445 17.207 14.9121 17.9688C14.1895 18.7207 13.8281 19.8486 13.8281 21.3525V37.5244C13.8281 39.0381 14.209 40.1709 14.9707 40.9229C15.7422 41.6846 16.8945 42.0654 18.4277 42.0654ZM18.3398 39.8242C17.6074 39.8242 17.0459 39.6338 16.6553 39.2529C16.2646 38.8623 16.0693 38.2861 16.0693 37.5244V21.3525C16.0693 20.6006 16.2646 20.0342 16.6553 19.6533C17.0459 19.2627 17.6074 19.0674 18.3398 19.0674H41.6602C42.3828 19.0674 42.9395 19.2627 43.3301 19.6533C43.7305 20.0342 43.9307 20.6055 43.9307 21.3672V37.5391C43.9307 38.291 43.7305 38.8623 43.3301 39.2529C42.9395 39.6338 42.3828 39.8242 41.6602 39.8242H18.3398ZM30.0293 33.3496C30.5469 33.3496 31.0547 33.2373 31.5527 33.0127C32.0508 32.7881 32.5586 32.4219 33.0762 31.9141L44.9707 20.2246L43.4473 18.6865L31.8018 30.1855C31.4795 30.498 31.1719 30.7275 30.8789 30.874C30.5957 31.0205 30.3125 31.0938 30.0293 31.0938C29.7363 31.0938 29.4434 31.0205 29.1504 30.874C28.8672 30.7178 28.5693 30.4883 28.2568 30.1855L16.5527 18.6279L15.0146 20.166L26.9824 31.9141C27.4902 32.4219 27.9932 32.7881 28.4912 33.0127C28.999 33.2373 29.5117 33.3496 30.0293 33.3496ZM43.3008 40.1465L44.8242 38.6084L35.3467 29.248L33.8232 30.7715L43.3008 40.1465ZM15.2197 38.623L16.7432 40.1611L26.2354 30.7715L24.6973 29.248L15.2197 38.623Z" fill="black"/>
</svg>
