<svg width="134" height="120" viewBox="0 0 134 120" fill="none" xmlns="http://www.w3.org/2000/svg">
<path d="M1.35 45H15.9C28.45 45 36.75 37.55 36.75 24.45C36.75 15 30.7 9.25 18.55 9.25H7L1.35 45ZM12.85 37.15L16.05 17.05H18.35C23.7 17.05 26.15 19.95 26.15 24.9C26.15 32.7 22.45 37.15 15.95 37.15H12.85ZM45.9547 45.6C49.8047 45.6 52.1047 43.85 53.7047 41.75C53.6547 42.8 53.6547 43.9 53.8547 45H62.5047C62.2047 42.8 62.3547 40.25 62.9047 36.85L64.0547 29.6C65.3047 21.8 61.1547 18.15 52.7547 18.15C46.1047 18.15 41.4547 21.15 40.1547 27.55H48.5547C48.9547 25.85 49.9547 24.45 52.3547 24.45C55.2047 24.45 55.7547 26.05 55.3547 28.5L55.2547 29.2H51.4047C42.9547 29.2 37.6547 31.5 37.6547 38.35C37.6547 42.95 41.2047 45.6 45.9547 45.6ZM49.5047 39.6C47.5547 39.6 46.5547 38.5 46.5547 37.15C46.5547 35 48.0547 34.25 51.6547 34.25H54.4547L54.2047 35.85C53.8547 38.15 51.9547 39.6 49.5047 39.6ZM66.8508 53.75H75.8008L95.1008 18.85H86.2008L79.1508 32.9L76.1508 18.85H66.8508L73.2008 42.05L66.8508 53.75ZM1.35 105H15.9C28.45 105 36.75 97.55 36.75 84.45C36.75 75 30.7 69.25 18.55 69.25H7L1.35 105ZM12.85 97.15L16.05 77.05H18.35C23.7 77.05 26.15 79.95 26.15 84.9C26.15 92.7 22.45 97.15 15.95 97.15H12.85ZM47.8023 76.3C50.5523 76.3 52.6523 74.35 52.6523 71.7C52.6523 69.1 50.6023 67.15 47.8523 67.15C45.0523 67.15 43.0023 69.15 43.0023 71.75C43.0023 74.4 45.0023 76.3 47.8023 76.3ZM38.2023 105H47.1523L51.2523 78.85H42.3523L38.2023 105ZM60.7984 105.6C64.6484 105.6 66.9484 103.85 68.5484 101.75C68.4984 102.8 68.4984 103.9 68.6984 105H77.3484C77.0484 102.8 77.1984 100.25 77.7484 96.85L78.8984 89.6C80.1484 81.8 75.9984 78.15 67.5984 78.15C60.9484 78.15 56.2984 81.15 54.9984 87.55H63.3984C63.7984 85.85 64.7984 84.45 67.1984 84.45C70.0484 84.45 70.5984 86.05 70.1984 88.5L70.0984 89.2H66.2484C57.7984 89.2 52.4984 91.5 52.4984 98.35C52.4984 102.95 56.0484 105.6 60.7984 105.6ZM64.3484 99.6C62.3984 99.6 61.3984 98.5 61.3984 97.15C61.3984 95 62.8984 94.25 66.4984 94.25H69.2984L69.0484 95.85C68.6984 98.15 66.7984 99.6 64.3484 99.6ZM81.6047 105H90.5547L92.4047 93.45C93.2047 88.3 96.3547 86.65 101.855 86.85L103.155 78.5C98.6047 78.45 95.7547 80.3 93.6547 84.4C93.9047 82.3 94.0047 80.15 94.0047 78.85H85.2547C85.2047 81.2 84.9547 83.65 84.3547 87.4L81.6047 105ZM105.034 113.75H113.984L133.284 78.85H124.384L117.334 92.9L114.334 78.85H105.034L111.384 102.05L105.034 113.75Z" fill="black"/>
<path d="M52.5 72C52.5 74.4415 50.3073 76.5 47.5 76.5C44.6927 76.5 42.5 74.4415 42.5 72C42.5 69.5585 44.6927 67.5 47.5 67.5C50.3073 67.5 52.5 69.5585 52.5 72Z" fill="#FFE767" stroke="black"/>
</svg>
