<svg width="59" height="59" viewBox="0 0 59 59" fill="none" xmlns="http://www.w3.org/2000/svg">
<circle cx="29.5" cy="29.5" r="29.5" fill="#F9DE59"/>
<path d="M30 18.75C37.2487 18.75 43.125 23.33 43.125 28.9813C43.125 34.6313 37.2487 39.2112 30 39.2112C29.2782 39.2116 28.5572 39.1657 27.8412 39.0738L22.3312 42.6775C21.705 43.0088 21.4838 42.9725 21.7413 42.1613L22.8562 37.5638C19.2562 35.7388 16.875 32.5763 16.875 28.9813C16.875 23.3313 22.7513 18.75 30 18.75ZM37.3837 28.825L39.2213 27.045C39.3273 26.9349 39.3864 26.7879 39.3862 26.6351C39.3861 26.4822 39.3266 26.3354 39.2203 26.2255C39.114 26.1157 38.9692 26.0513 38.8164 26.0461C38.6636 26.0409 38.5148 26.0952 38.4013 26.1975L35.9912 28.53V26.6025C35.9912 26.446 35.9291 26.296 35.8184 26.1853C35.7078 26.0747 35.5577 26.0125 35.4012 26.0125C35.2448 26.0125 35.0947 26.0747 34.9841 26.1853C34.8734 26.296 34.8112 26.446 34.8112 26.6025V29.7987C34.7891 29.8899 34.7891 29.9851 34.8112 30.0762V31.875C34.8112 32.0315 34.8734 32.1815 34.9841 32.2922C35.0947 32.4028 35.2448 32.465 35.4012 32.465C35.5577 32.465 35.7078 32.4028 35.8184 32.2922C35.9291 32.1815 35.9912 32.0315 35.9912 31.875V30.1713L36.525 29.655L38.31 32.1962C38.3546 32.2597 38.4112 32.3137 38.4766 32.3553C38.5421 32.3969 38.6151 32.4251 38.6915 32.4385C38.7679 32.4518 38.8461 32.45 38.9218 32.4331C38.9975 32.4162 39.0691 32.3846 39.1325 32.34C39.1959 32.2954 39.25 32.2388 39.2916 32.1734C39.3331 32.1079 39.3614 32.0349 39.3747 31.9585C39.3881 31.8821 39.3862 31.8039 39.3693 31.7282C39.3525 31.6525 39.3208 31.5809 39.2762 31.5175L37.3837 28.8238V28.825ZM33.6863 31.23H31.8613V26.6212C31.8543 26.4696 31.7891 26.3265 31.6794 26.2217C31.5696 26.1169 31.4237 26.0584 31.2719 26.0584C31.1201 26.0584 30.9742 26.1169 30.8644 26.2217C30.7546 26.3265 30.6895 26.4696 30.6825 26.6212V31.82C30.6825 32.145 30.945 32.41 31.2713 32.41H33.6863C33.8427 32.41 33.9928 32.3478 34.1034 32.2372C34.2141 32.1265 34.2762 31.9765 34.2762 31.82C34.2762 31.6635 34.2141 31.5135 34.1034 31.4028C33.9928 31.2922 33.8427 31.23 33.6863 31.23ZM26.365 29.865L27.235 27.7313L28.0325 29.865H26.365ZM29.5187 30.475L29.5212 30.455C29.521 30.3064 29.4642 30.1634 29.3625 30.055L28.055 26.555C28.0002 26.3882 27.8958 26.2421 27.7557 26.1362C27.6157 26.0304 27.4467 25.9698 27.2713 25.9625C27.0945 25.9617 26.9218 26.0148 26.776 26.1146C26.6302 26.2144 26.5182 26.3562 26.455 26.5213L24.3787 31.615C24.3494 31.6867 24.3346 31.7635 24.3349 31.841C24.3353 31.9185 24.351 31.9952 24.381 32.0666C24.411 32.1381 24.4548 32.2029 24.5098 32.2574C24.5649 32.3119 24.6301 32.3551 24.7019 32.3844C24.7736 32.4137 24.8504 32.4286 24.9279 32.4282C25.0054 32.4278 25.082 32.4122 25.1535 32.3822C25.2249 32.3522 25.2898 32.3084 25.3443 32.2533C25.3988 32.1982 25.4419 32.133 25.4712 32.0613L25.8837 31.045H28.4713L28.845 32.045C28.8704 32.1197 28.9106 32.1886 28.9631 32.2476C29.0156 32.3065 29.0794 32.3543 29.1507 32.3882C29.2221 32.422 29.2995 32.4412 29.3784 32.4446C29.4572 32.4479 29.536 32.4355 29.6099 32.4078C29.6839 32.3802 29.7516 32.3381 29.8089 32.2838C29.8663 32.2296 29.9122 32.1644 29.9439 32.0921C29.9756 32.0198 29.9925 31.9418 29.9936 31.8629C29.9946 31.784 29.9798 31.7056 29.95 31.6325L29.5187 30.475ZM25.3663 26.6275C25.3663 26.4712 25.3043 26.3214 25.1939 26.2107C25.0835 26.1001 24.9338 26.0378 24.7775 26.0375H20.7213C20.5648 26.0375 20.4147 26.0997 20.3041 26.2103C20.1934 26.321 20.1313 26.471 20.1313 26.6275C20.1313 26.784 20.1934 26.934 20.3041 27.0447C20.4147 27.1553 20.5648 27.2175 20.7213 27.2175H22.1712V31.8875C22.1712 32.044 22.2334 32.194 22.3441 32.3047C22.4547 32.4153 22.6048 32.4775 22.7613 32.4775C22.9177 32.4775 23.0678 32.4153 23.1784 32.3047C23.2891 32.194 23.3513 32.044 23.3513 31.8875V27.2175H24.7763C24.9327 27.2175 25.0828 27.1553 25.1934 27.0447C25.3041 26.934 25.3663 26.784 25.3663 26.6275Z" fill="black"/>
</svg>
