<svg width="59" height="59" viewBox="0 0 59 59" fill="none" xmlns="http://www.w3.org/2000/svg">
<circle cx="29.5" cy="29.5" r="29.5" fill="black"/>
<path d="M38.3876 37.375C37.3501 38.925 36.2501 40.4375 34.5751 40.4625C32.9001 40.5 32.3626 39.475 30.4626 39.475C28.5501 39.475 27.9626 40.4375 26.3751 40.5C24.7376 40.5625 23.5001 38.85 22.4501 37.3375C20.3126 34.25 18.6751 28.5625 20.8751 24.7375C21.9626 22.8375 23.9126 21.6375 26.0251 21.6C27.6251 21.575 29.1501 22.6875 30.1376 22.6875C31.1126 22.6875 32.9626 21.35 34.9001 21.55C35.7126 21.5875 37.9876 21.875 39.4501 24.025C39.3376 24.1 36.7376 25.625 36.7626 28.7875C36.8001 32.5625 40.0751 33.825 40.1126 33.8375C40.0751 33.925 39.5876 35.6375 38.3876 37.375ZM31.2501 17.375C32.1626 16.3375 33.6751 15.55 34.9251 15.5C35.0876 16.9625 34.5001 18.4375 33.6251 19.4875C32.7626 20.55 31.3376 21.375 29.9376 21.2625C29.7501 19.825 30.4501 18.325 31.2501 17.375Z" fill="white"/>
</svg>
