<svg width="59" height="59" viewBox="0 0 59 59" fill="none" xmlns="http://www.w3.org/2000/svg">
<circle cx="29.5" cy="29.5" r="29" stroke="#D9D9D9"/>
<path d="M40.6876 29.875H29.2251V33.2875H37.3626C36.9501 38.05 32.9876 40.0875 29.2376 40.0875C24.4501 40.0875 20.2501 36.3125 20.2501 31C20.2501 25.875 24.2501 21.9125 29.2501 21.9125C33.1126 21.9125 35.3751 24.375 35.3751 24.375L37.7501 21.9C37.7501 21.9 34.7001 18.5 29.1251 18.5C22.0251 18.5 16.5376 24.5 16.5376 31C16.5376 37.3125 21.7001 43.5 29.3126 43.5C36.0001 43.5 40.8751 38.9125 40.8751 32.1375C40.8751 30.7 40.6876 29.875 40.6876 29.875Z" fill="black"/>
</svg>
